PathFileType  4	(X/Y/Z) C:\Users\antoi\Documents\MyRepositories\mobilecap\ResultsAnalysis
DataRate	CameraRate	NumFrames	NumMarkers	Units	OrigDataRate	OrigDataStartFrame	OrigNumFrames
100.0	100.0	5	55	mm	100.0	595	679
Frame#	Time	r_knee			r_shank_antsup			r_ankle			r_calc			r_5meta			r_toe			L_knee			L_shank_antsup			L_ankle			L_calc			L_5meta			L_toe			r_mknee			r_mankle			L_mknee			L_mankle			r_sh2			r_sh3			r_sh4			L_sh2			L_sh3			r_thigh1			r_thigh2			r_thigh3			r_thigh4			r_thigh5			L_thigh1			L_thigh2			L_thigh3			L_thigh4			r.ASIS			r.PSIS			L.ASIS			L.PSIS			C7			R_Shoulder			L_Shoulder			R_Sternum			L_Sternum			R_humerus			R_elbow_med			R_elbow_lat			R_forearm			R_wrist_radius			R_wrist_ulna			L_humerus			L_elbow_med			L_elbow_lat			L_forearm			L_wrist_radius			L_wrist_ulna			R_HJC			L_HJC			R_HJC_reg			L_HJC_reg			
		X1	Y1	Z1	X2	Y2	Z2	X3	Y3	Z3	X4	Y4	Z4	X5	Y5	Z5	X6	Y6	Z6	X7	Y7	Z7	X8	Y8	Z8	X9	Y9	Z9	X10	Y10	Z10	X11	Y11	Z11	X12	Y12	Z12	X13	Y13	Z13	X14	Y14	Z14	X15	Y15	Z15	X16	Y16	Z16	X17	Y17	Z17	X18	Y18	Z18	X19	Y19	Z19	X20	Y20	Z20	X21	Y21	Z21	X22	Y22	Z22	X23	Y23	Z23	X24	Y24	Z24	X25	Y25	Z25	X26	Y26	Z26	X27	Y27	Z27	X28	Y28	Z28	X29	Y29	Z29	X30	Y30	Z30	X31	Y31	Z31	X32	Y32	Z32	X33	Y33	Z33	X34	Y34	Z34	X35	Y35	Z35	X36	Y36	Z36	X37	Y37	Z37	X38	Y38	Z38	X39	Y39	Z39	X40	Y40	Z40	X41	Y41	Z41	X42	Y42	Z42	X43	Y43	Z43	X44	Y44	Z44	X45	Y45	Z45	X46	Y46	Z46	X47	Y47	Z47	X48	Y48	Z48	X49	Y49	Z49	X50	Y50	Z50	X51	Y51	Z51	X52	Y52	Z52	X53	Y53	Z53	X54	Y54	Z54	X55	Y55	Z55	

595	5.94000000	-220.89790	473.84640	-434.15692	-189.70490	365.04130	-449.49616	-256.57297	89.88065	-466.29942	-302.51795	52.07495	-517.35879	-141.73732	39.93817	-434.87148	-105.53732	58.73112	-476.86450	-214.82002	475.58599	-787.17530	-179.60503	374.61935	-747.94179	-256.22607	88.15983	-770.93320	-296.20185	50.82862	-719.38620	-134.24989	36.62791	-789.05483	-94.66944	58.62098	-736.05475	-239.38421	474.48994	-567.25458	-231.18828	108.04643	-544.06152	-223.80606	473.81359	-655.57234	-226.43877	104.78540	-689.39314	-199.25434	253.36305	-460.13849	-245.00285	363.02896	-397.32119	-270.31388	256.91117	-418.00114	-234.02994	397.73885	-815.97100	-245.48545	277.03069	-827.00141	-124.17521	776.88724	-452.73877	-124.25210	665.66737	-448.65212	-168.14860	641.67279	-404.34615	-226.18801	774.88074	-404.61076	-221.31403	659.43926	-399.81081	-131.10100	767.81227	-784.60877	-125.70590	628.91438	-783.03584	-236.34919	769.26065	-823.92556	-232.65821	628.45669	-816.50003	-114.22910	939.39077	-486.80982	-293.44967	988.59382	-561.08305	-102.24194	938.25913	-732.79455	-291.76560	988.11452	-677.61945	-293.46465	1434.96329	-621.45695	-238.08169	1408.31641	-465.55618	-233.73274	1413.55064	-779.30224	-167.11746	1399.64806	-605.39769	-164.24897	1396.53278	-643.54431	-205.60429	1281.43996	-403.85096	-257.27654	1081.29962	-458.16358	-230.45592	1086.74535	-388.15780	-168.25543	977.34938	-371.07252	-126.17918	880.91395	-375.07845	-157.24509	870.11566	-358.39025	-199.38254	1262.27333	-838.15681	-245.75946	1071.58049	-774.36943	-229.01750	1077.12470	-846.82559	-172.06945	995.81611	-863.46810	-122.20004	873.48485	-849.97771	-148.15355	864.50660	-868.42574	-205.29569	870.94773	-516.11118	-193.26169	866.59844	-705.05618	-185.74426	872.19924	-522.06610	-183.39559	871.53079	-684.59205	
596	5.95000000	-220.88304	473.88071	-434.16212	-189.71789	365.03306	-449.52123	-256.58771	89.87878	-466.30988	-302.52360	52.07088	-517.39032	-141.73870	39.95105	-434.88201	-105.54844	58.73189	-476.87702	-214.84273	475.55946	-787.18893	-179.60381	374.60713	-747.93826	-256.22595	88.14507	-770.94725	-296.29251	50.96241	-719.52199	-134.27425	36.59524	-789.02696	-94.66986	58.60247	-736.09684	-239.38796	474.49265	-567.25726	-231.19022	108.04286	-544.06143	-223.80601	473.80969	-655.57288	-226.68777	105.45385	-689.32404	-199.26372	253.36700	-460.15439	-245.02040	363.05871	-397.29487	-270.30730	256.93137	-417.99296	-234.03592	397.72470	-815.98136	-245.48357	276.98877	-827.01869	-124.24409	776.85210	-452.76382	-124.29034	665.62164	-448.60457	-168.17764	641.70180	-404.36376	-226.20546	774.89677	-404.61977	-221.18879	659.47022	-399.67032	-131.10185	767.81335	-784.60872	-125.71091	628.89298	-783.02668	-236.36422	769.26187	-823.91226	-232.66403	628.44248	-816.50372	-114.27543	939.38824	-486.77702	-293.46652	988.57650	-561.09810	-102.22998	938.25768	-732.81349	-291.77347	988.11364	-677.64294	-293.46290	1434.95883	-621.48060	-238.06985	1408.34812	-465.55659	-233.71024	1413.55554	-779.31164	-167.09717	1399.66422	-605.43409	-164.23997	1396.55645	-643.56167	-205.59685	1281.44389	-403.85618	-257.28880	1081.30256	-458.14885	-230.44214	1086.78082	-388.13615	-168.24290	977.43182	-371.02386	-126.14962	880.97592	-375.05031	-157.22745	870.14506	-358.37371	-199.35920	1262.27628	-838.17189	-245.76326	1071.59776	-774.38407	-229.02746	1077.14145	-846.85529	-172.09609	995.82561	-863.53337	-122.25126	873.50594	-850.07608	-148.19974	864.53895	-868.53022	-205.32484	870.93861	-516.12143	-193.25734	866.59628	-705.06445	-185.76501	872.16143	-522.05636	-183.40348	871.51582	-684.61819	
597	5.96000000	-220.88454	473.89997	-434.23028	-189.73254	365.02796	-449.52938	-256.62515	89.95435	-466.28747	-302.54871	52.05092	-517.41868	-141.73537	39.97238	-434.88417	-105.54614	58.74104	-476.89043	-214.85716	475.52439	-787.20433	-179.61286	374.60107	-747.95771	-256.22141	88.12730	-770.96393	-296.37008	51.08155	-719.64882	-134.28385	36.56245	-789.01799	-94.69362	58.58630	-736.15411	-239.38075	474.51379	-567.28713	-231.19165	108.04345	-544.06045	-223.80392	473.81117	-655.57345	-226.48306	104.74613	-689.37502	-199.26219	253.37885	-460.15653	-245.02475	363.09029	-397.25051	-270.32918	256.94663	-418.02958	-234.04197	397.70392	-815.98914	-245.49694	276.95597	-827.02610	-124.26446	776.84075	-452.82103	-124.35085	665.57633	-448.50568	-168.20005	641.71315	-404.37566	-226.23461	774.89570	-404.66522	-221.22824	659.48536	-399.62021	-131.10873	767.81438	-784.60984	-125.72059	628.90771	-783.05533	-236.37379	769.26079	-823.91844	-232.67098	628.42015	-816.49965	-114.31178	939.41682	-486.72934	-293.48563	988.56448	-561.10669	-102.23371	938.25148	-732.83945	-291.80032	988.11486	-677.67013	-293.46414	1434.94985	-621.48839	-238.05966	1408.38345	-465.55694	-233.69403	1413.56959	-779.32971	-167.06602	1399.67518	-605.45148	-164.23210	1396.57105	-643.58036	-205.59426	1281.50152	-403.82898	-257.37942	1081.32706	-458.08480	-230.45146	1086.81192	-388.08769	-168.24107	977.48430	-371.00396	-126.13278	881.00355	-375.03849	-157.17263	870.18580	-358.38668	-199.33173	1262.28220	-838.18965	-245.76383	1071.60910	-774.39999	-229.01642	1077.14337	-846.87509	-172.08913	995.82181	-863.55723	-122.27913	873.50204	-850.09943	-148.21873	864.53375	-868.55125	-205.34896	870.95122	-516.11593	-193.26132	866.59047	-705.05724	-185.77050	872.12402	-522.02266	-183.41941	871.49678	-684.63443	
598	5.97000000	-220.93946	473.88354	-434.27499	-189.75510	365.01999	-449.52804	-256.62751	89.97587	-466.29407	-302.56302	52.03521	-517.47214	-141.72468	39.98525	-434.87637	-105.53012	58.75258	-476.91241	-214.85112	475.49976	-787.20438	-179.62416	374.58935	-747.97329	-256.21667	88.11352	-770.97266	-296.51846	51.26440	-719.80222	-134.28249	36.54529	-789.02794	-94.70827	58.57756	-736.16826	-239.40929	474.50427	-567.27882	-231.18892	108.04552	-544.05862	-223.80302	473.81579	-655.57460	-226.18210	103.75141	-689.44430	-199.29206	253.44682	-460.15991	-245.04177	363.13573	-397.22320	-270.42990	256.88155	-418.12449	-234.04910	397.68988	-815.99268	-245.51005	276.93833	-827.02932	-124.25591	776.84534	-452.84364	-124.38655	665.59693	-448.47245	-168.21452	641.69801	-404.39466	-226.27649	774.84827	-404.76175	-221.32658	659.51647	-399.59409	-131.12993	767.81455	-784.60868	-125.73383	628.92648	-783.08939	-236.38811	769.25109	-823.92038	-232.67954	628.40713	-816.49849	-114.33435	939.45108	-486.72729	-293.51392	988.56201	-561.10480	-102.28825	938.23804	-732.83241	-291.83773	988.12320	-677.69209	-293.44931	1434.95165	-621.47683	-238.04071	1408.40202	-465.55363	-233.67439	1413.57398	-779.32764	-167.04973	1399.68898	-605.47254	-164.21860	1396.56787	-643.57223	-205.58554	1281.56803	-403.79243	-257.44945	1081.35483	-458.03652	-230.46796	1086.85367	-388.00505	-168.23687	977.49540	-370.99259	-126.11413	881.01022	-375.02600	-157.11865	870.22805	-358.41201	-199.30096	1262.29565	-838.20589	-245.75079	1071.61194	-774.41520	-228.98870	1077.13199	-846.87747	-172.06614	995.84070	-863.59525	-122.29932	873.47395	-850.10138	-148.22603	864.52807	-868.55447	-205.37835	870.97380	-516.10340	-193.29908	866.58258	-705.04454	-185.78478	872.11047	-522.01983	-183.44694	871.49845	-684.62769	
599	5.98000000	-221.01416	473.86683	-434.25510	-189.77929	365.00953	-449.52904	-256.61200	89.94122	-466.34497	-302.53857	52.05107	-517.50592	-141.71267	39.99065	-434.87933	-105.52234	58.76062	-476.92576	-214.85328	475.49545	-787.20284	-179.62348	374.57701	-747.97301	-256.21787	88.10551	-770.97345	-296.60284	51.37963	-719.89629	-134.27030	36.54262	-789.05894	-94.70315	58.59803	-736.13265	-239.50024	474.44210	-567.19589	-231.18848	108.04767	-544.05688	-223.80620	473.81682	-655.58055	-226.14374	103.63558	-689.44893	-199.34766	253.55417	-460.16243	-245.08772	363.19656	-397.21174	-270.55108	256.77616	-418.21439	-234.05317	397.68300	-815.99308	-245.50698	276.94051	-827.03500	-124.26928	776.83005	-452.81517	-124.37317	665.68701	-448.56708	-168.23526	641.68423	-404.41917	-226.33407	774.82490	-404.84994	-221.37037	659.56782	-399.55344	-131.13824	767.81191	-784.60935	-125.75489	628.92008	-783.10675	-236.40837	769.24137	-823.91189	-232.70409	628.41429	-816.51338	-114.35756	939.45868	-486.77142	-293.53900	988.56304	-561.10354	-102.36127	938.22655	-732.80174	-291.85728	988.12481	-677.70207	-293.40630	1434.97761	-621.50729	-238.02394	1408.40620	-465.54409	-233.64307	1413.57230	-779.30988	-167.05150	1399.71482	-605.47037	-164.20468	1396.57000	-643.55240	-205.57327	1281.59520	-403.77332	-257.39849	1081.35588	-458.06783	-230.45744	1086.89956	-387.94014	-168.22359	977.50125	-370.97923	-126.08076	881.03658	-374.99325	-157.09469	870.25169	-358.41141	-199.26906	1262.31066	-838.21395	-245.73473	1071.61671	-774.43107	-228.97455	1077.14229	-846.89374	-172.02700	995.94500	-863.76963	-122.32477	873.45340	-850.11549	-148.23485	864.53581	-868.57371	-205.41014	870.98127	-516.10145	-193.34774	866.57496	-705.04332	-185.82195	872.12541	-522.05576	-183.47737	871.51446	-684.61267	
